<?xml version="1.0" standalone="no"?>
<!DOCTYPE svg PUBLIC "-//W3C//DTD SVG 20010904//EN"
 "http://www.w3.org/TR/2001/REC-SVG-20010904/DTD/svg10.dtd">
<svg version="1.0" xmlns="http://www.w3.org/2000/svg"
 width="2107.000000pt" height="972.000000pt" viewBox="0 0 2107.000000 972.000000"
 preserveAspectRatio="xMidYMid meet">

<g transform="translate(0.000000,972.000000) scale(0.100000,-0.100000)"
fill="#000000" stroke="none">
<path d="M6159 9691 c-41 -41 -39 -72 26 -392 195 -963 266 -1745 268 -2969 0
-514 -7 -728 -39 -1110 -70 -852 -238 -1721 -471 -2435 -188 -577 -411 -1015
-555 -1091 -70 -37 -166 -4 -219 75 -82 122 -109 276 -188 1071 -121 1202
-165 2044 -160 3080 3 613 3 617 -58 670 -51 45 -98 53 -269 46 -190 -8 -375
-29 -569 -62 -182 -32 -256 -54 -317 -94 -91 -60 -100 -82 -319 -744 -376
-1141 -643 -1885 -974 -2716 -297 -745 -603 -1431 -847 -1898 l-75 -143 -7
143 c-3 79 -9 433 -12 788 -9 922 11 1376 102 2285 131 1312 312 2314 625
3457 32 119 59 234 59 255 0 94 -72 142 -211 143 -321 1 -757 -75 -1029 -178
-285 -108 -452 -210 -536 -328 -85 -119 -117 -217 -169 -519 -156 -909 -224
-1944 -212 -3260 7 -765 26 -1213 78 -1875 42 -543 115 -1206 145 -1324 56
-219 229 -365 563 -476 293 -98 557 -114 710 -45 111 51 163 125 389 546 424
792 893 1808 1265 2744 108 271 304 785 329 865 3 8 8 -28 12 -80 30 -429 39
-552 57 -740 55 -595 150 -1277 210 -1512 129 -512 461 -835 937 -913 146 -24
424 -17 532 14 666 192 1291 1176 1795 2826 451 1478 728 3223 702 4430 -13
622 -82 915 -256 1093 -95 97 -298 207 -528 286 -231 78 -434 116 -636 116
-118 0 -119 0 -148 -29z"/>
<path d="M12962 9605 c-93 -48 -97 -59 -201 -566 -116 -568 -234 -1296 -317
-1953 l-28 -218 -131 -98 c-329 -247 -677 -451 -960 -563 -146 -58 -139 -58
-154 10 -25 110 -100 322 -147 413 -124 241 -325 338 -864 419 -360 54 -824
72 -1006 38 -299 -55 -446 -180 -622 -532 -253 -508 -416 -1186 -484 -2010
-19 -228 -15 -859 5 -1085 65 -702 177 -1015 422 -1178 193 -129 516 -241 830
-287 148 -22 369 -22 460 -1 539 127 1074 1015 1329 2206 86 402 146 947 146
1331 l0 107 28 7 c56 14 292 110 427 174 209 100 470 256 608 363 l37 30 0
-30 c0 -17 -9 -128 -20 -248 -71 -798 -107 -1660 -96 -2314 9 -533 25 -681 92
-817 54 -112 181 -216 393 -323 261 -131 644 -214 843 -182 156 24 333 102
527 232 484 324 941 853 1259 1458 l59 113 6 -138 c6 -153 24 -254 68 -387
144 -434 551 -766 1062 -868 145 -29 369 -31 497 -4 500 104 1076 479 1739
1131 322 317 546 566 838 930 229 285 311 420 408 670 118 300 215 731 215
950 0 97 -6 122 -31 130 -45 14 -120 -56 -255 -240 -646 -879 -1467 -1848
-2008 -2372 -493 -478 -843 -713 -1059 -713 -73 0 -117 20 -162 73 -70 82 -95
218 -95 525 0 559 65 1229 191 1972 56 330 207 1073 220 1083 2 2 112 25 244
50 747 147 1793 377 3045 671 583 137 610 147 694 236 45 48 63 87 53 114 -15
37 -159 43 -667 26 -694 -23 -1491 -68 -2593 -145 -274 -19 -511 -35 -527 -35
l-28 0 18 68 c55 197 214 793 222 829 29 129 -60 205 -327 278 -207 56 -357
78 -550 79 -199 1 -249 -9 -305 -63 -33 -31 -44 -54 -79 -166 -64 -205 -142
-495 -222 -823 -64 -263 -77 -303 -94 -307 -11 -2 -176 -15 -366 -30 -208 -15
-368 -32 -399 -41 -62 -18 -123 -71 -155 -133 -67 -133 -116 -386 -118 -606
-1 -212 23 -283 106 -314 51 -20 158 -12 447 33 157 25 286 43 288 41 2 -2
-21 -151 -52 -332 -30 -180 -78 -488 -106 -683 l-51 -355 -66 -110 c-346 -573
-828 -1261 -1178 -1680 -121 -145 -347 -379 -431 -446 -133 -106 -225 -133
-295 -86 -89 58 -109 182 -109 662 0 360 8 583 35 975 49 704 160 1660 281
2415 22 138 35 185 94 346 259 698 351 1048 409 1564 12 99 21 203 21 231 0
128 -62 220 -196 290 -229 121 -623 220 -919 231 -137 5 -141 4 -193 -22z
m-2883 -3402 c48 -231 132 -397 262 -517 71 -66 179 -123 251 -132 26 -4 48
-8 48 -10 0 -27 -34 -416 -46 -519 -142 -1284 -575 -2403 -930 -2405 -158 -1
-282 308 -325 808 -15 181 -7 705 15 932 62 642 176 1136 376 1630 51 126 200
433 267 549 l48 84 7 -159 c4 -98 14 -198 27 -261z"/>
</g>
</svg>
